# AST/ASF file generated using VICON BodyLanguage
# -----------------------------------------------
:version 1.10
:name VICON
:units
  mass 1.0
  length 0.45
  angle deg
:documentation
   .ast/.asf automatically generated from VICON data using
   VICON BodyBuilder and BodyLanguage model FoxedUp or BRILLIANT.MOD
:root
   order TX TY TZ RX RY RZ
   axis XYZ
   position 0 0 0  
   orientation 0 0 0 
:bonedata
  begin
     id 1 
     name lhipjoint
     direction 0.645893 -0.654526 0.392961 
     length 2.38111 
     axis 0 0 0  XYZ
  end
  begin
     id 2 
     name lfemur
     direction 0.34202 -0.939693 0  
     length 6.6822  
     axis 0 0 20  XYZ
    dof rx ry rz
    limits (-160.0 20.0)
           (-70.0 70.0)
           (-60.0 70.0)
  end
  begin
     id 3 
     name ltibia
     direction 0.34202 -0.939693 0   
     length 6.93904   
     axis 0 0 20   XYZ
    dof rx
    limits (-10.0 170.0)
  end
  begin
     id 4 
     name lfoot
     direction 0.0694967 -0.190941 0.979138   
     length 2.13616   
     axis -90 7.62852e-016 20   XYZ
    dof rx rz
    limits (-45.0 90.0)
           (-70.0 20.0)
  end
  begin
     id 5 
     name ltoes
     direction 1.535e-011 -4.2202e-011 1   
     length 1.07536   
     axis -90 7.62852e-016 20   XYZ
    dof rx
    limits (-90.0 20.0)
  end
  begin
     id 6 
     name rhipjoint
     direction -0.700219 -0.612087 0.367481   
     length 2.54621  
     axis 0 0 0  XYZ 
  end
  begin
     id 7 
     name rfemur
     direction -0.34202 -0.939693 0   
     length 6.55353   
     axis 0 0 -20   XYZ
    dof rx ry rz
    limits (-160.0 20.0)
           (-70.0 70.0)
           (-70.0 60.0)
  end
  begin
     id 8 
     name rtibia
     direction -0.34202 -0.939693 0   
     length 6.8736   
     axis 0 0 -20   XYZ
    dof rx
    limits (-10.0 170.0)
 end
 begin
     id 9 
     name rfoot
     direction -0.0679995 -0.186827 0.980037   
     length 2.1218  
     axis -90 -7.62852e-016 -20   XYZ
    dof rx rz
    limits (-45.0 90.0)
           (-20.0 70.0)
  end
  begin
     id 10 
     name rtoes
     direction -1.53589e-011 -4.21772e-011 1   
     length 1.06864   
     axis -90 -7.62852e-016 -20   XYZ
    dof rx
    limits (-90.0 20.0)
  end
  begin
     id 11 
     name lowerback
     direction -0.0416607 0.996347 -0.0745409   
     length 2.12205   
     axis 0 0 0   XYZ
    dof rx ry rz
    limits (-20.0 45.0)
           (-30.0 30.0)
           (-30.0 30.0)
  end
  begin
     id 12 
     name upperback
     direction -0.000153993 0.999276 -0.0380568   
     length 2.12759   
     axis 0 0 0   XYZ
    dof rx ry rz
    limits (-20.0 45.0)
           (-30.0 30.0)
           (-30.0 30.0)
  end
  begin
     id 13 
     name thorax
     direction 0.0187671 0.999821 -0.00241421   
     length 2.13704   
     axis 0 0 0   XYZ
    dof rx ry rz
    limits (-20.0 45.0)
           (-30.0 30.0)
           (-30.0 30.0)
  end
  begin
     id 14 
     name lowerneck
     direction 0.0268157 0.964865 0.261374   
     length 1.65253   
     axis 0 0 0   XYZ
    dof rx ry rz
    limits (-20.0 45.0)
           (-30.0 30.0)
           (-30.0 30.0)
  end
  begin
     id 15 
     name upperneck
     direction 0.00263774 0.939908 -0.341418   
     length 1.72375   
     axis 0 0 0   XYZ
    dof rx ry rz
    limits (-20.0 45.0)
           (-30.0 30.0)
           (-30.0 30.0)
  end
  begin
     id 16
     name head
     direction -0.00526001 0.989001 -0.147818  
     length 1.74878  
     axis 0 0 0   XYZ
    dof rx ry rz
    limits (-20.0 45.0)
           (-30.0 30.0)
           (-30.0 30.0)
  end
  begin
     id 17 
     name lclavicle
     direction 0.881214 0.461162 -0.103884  
     length 3.25108  
     axis 0 0 0   XYZ
    dof ry rz
    limits (-20.0 10.0)
           (0.0 20.0)
  end
  begin
     id 18 
     name lhumerus
     direction 1 -4.4899e-011 3.38092e-027   
     length 4.87408   
     axis 180 -30 -90   XYZ
    dof rx ry rz
    limits (-60.0 90.0)
           (-90.0 90.0)
           (-90.0 90.0)
  end
  begin
     id 19
     name lradius
     direction 1 -4.48931e-011 9.96288e-027   
     length 2.76729   
     axis 180 -30 -90   XYZ
    dof rx
    limits (-10.0 170.0)
  end
  begin
     id 20
     name lwrist
     direction 1 -4.4896e-011 1.50617e-026   
     length 1.38364   
     axis -9.31234e-015 90 90   XYZ
    dof ry
    limits (-180.0 0.0)
 end
  begin
     id 21 
     name lhand
     direction 1 -4.49038e-011 3.01286e-026   
     length 0.98922   
     axis -1.92217e-014 90 90   XYZ
    dof rx rz
    limits (-90.0 90.0)
           (-45.0 45.0)
  end
  begin
     id 22 
     name lfingers
     direction 1 -4.49051e-011 6.02588e-026   
     length 0.797535   
     axis -3.84436e-014 90 90   XYZ
    dof rx
    limits (0.0 90.0)
  end
  begin
     id 23
     name lthumb
     direction 0.707107 -6.34901e-011 0.707107   
     length 1.14511   
     axis -90 45 2.19363e-014   XYZ
    dof rx rz
    limits (-45.0 45.0)
           (-45.0 45.0)
  end
  begin
     id 24 
     name rclavicle
     direction -0.893894 0.441652 -0.0767889   
     length 3.29361  
     axis 0 0 0   XYZ 
    dof ry rz
    limits (-10.0 20.0)
           (-20.0 0.0)
  end
  begin
     id 25 
     name rhumerus
     direction -1 -4.48945e-011 8.0491e-028  
     length 4.71404   
     axis 180 30 90   XYZ
    dof rx ry rz
    limits (-90.0 60.0)
           (-90.0 90.0)
           (-90.0 90.0)
  end
  begin
     id 26 
     name rradius
     direction -1 -4.48986e-011 9.27795e-027   
     length 2.83468   
     axis 180 30 90   XYZ
    dof rx
    limits (-10.0 170.0)
  end
  begin
     id 27 
     name rwrist
     direction -1 -4.49029e-011 1.5064e-026   
     length 1.41734   
     axis -9.31234e-015 -90 -90   XYZ
    dof ry
    limits (-180.0 0.0)
  end
  begin
     id 28
     name rhand
     direction -1 -4.48857e-011 3.01165e-026   
     length 0.868195   
     axis -1.92217e-014 -90 -90   XYZ
    dof rx rz
    limits (-90.0 90.0)
           (-45.0 45.0)
  end
  begin
     id 29
     name rfingers
     direction -1 -4.49048e-011 6.02585e-026   
     length 0.699961   
     axis -3.84436e-014 -90 -90   XYZ
    dof rx
    limits (0.0 90.0)
  end
  begin
     id 30
     name rthumb
     direction -0.707107 -6.34854e-011 0.707107   
     length 1.00501   
     axis -90 -45 -2.19363e-014   XYZ
    dof rx rz
    limits (-45.0 45.0)
           (-45.0 45.0)
  end
:hierarchy
  begin
    root lhipjoint rhipjoint lowerback
    lhipjoint lfemur
    lfemur ltibia
    ltibia lfoot
    lfoot ltoes
    rhipjoint rfemur
    rfemur rtibia
    rtibia rfoot
    rfoot rtoes
    lowerback upperback
    upperback thorax
    thorax lowerneck lclavicle rclavicle
    lowerneck upperneck
    upperneck head
    lclavicle lhumerus
    lhumerus lradius
    lradius lwrist
    lwrist lhand lthumb
    lhand lfingers
    rclavicle rhumerus
    rhumerus rradius
    rradius rwrist
    rwrist rhand rthumb
    rhand rfingers
  end

#!OML:ASF H:\ManfredObstacles\Project 1\Capture day 2\Session 1\male.ASF
:FULLY-SPECIFIED
:DEGREES
32
root 1.0603 16.3995 16.2092 -168.847 -4.17049 -186.6
lowerback -0.712607 -6.86522 -9.09475
upperback 0.140377 -9.16438 -0.858817
thorax 1.80782 -4.69333 3.81223
lowerneck -35.2138 2.49445 4.49574
upperneck 36.4802 2.68841 -0.940853
head 20.4215 1.89867 -0.377501
rclavicle 2.30391e-013 1.19271e-014
rhumerus -78.3271 6.08348 -76.2476
rradius 79.4949
rwrist 4.18065
rhand -13.8059 -2.54399
rfingers 7.12502
rthumb 12.3162 -32.1613
lclavicle 2.30391e-013 1.19271e-014
lhumerus -38.9183 -33.6852 98.1783
lradius 105.799
lwrist -19.9304
lhand -14.8329 4.53965
lfingers 7.12502
lthumb 11.3259 34.2138
rfemur -48.077 -1.76746 14.0226
rtibia 62.4761
rfoot 5.23682 -19.9584
rtoes -18.3991
lfemur 3.24789 -4.94216 -29.3271
ltibia 20.5921
lfoot 20.5401 3.02432
ltoes -11.4068
33
root 1.07528 16.5076 15.8615 -168.555 -4.23916 -186.427
lowerback -1.01578 -7.1976 -8.84333
upperback 0.00495282 -9.57231 -0.627656
thorax 1.89056 -4.88945 3.85343
lowerneck -34.9974 2.77701 4.74779
upperneck 36.3636 3.13637 -1.2937
head 20.3283 2.0412 -0.482401
rclavicle -2.59414e-014 -7.95139e-015
rhumerus -79.0869 6.16475 -75.5387
rradius 79.92
rwrist 3.95984
rhand -13.6391 -2.40353
rfingers 7.12502
rthumb 12.4771 -32.0111
lclavicle -2.59414e-014 -7.95139e-015
lhumerus -39.3344 -34.1884 97.9248
lradius 106.295
lwrist -19.8656
lhand -14.4758 4.23498
lfingers 7.12502
lthumb 11.6703 33.89
rfemur -48.0345 -1.15077 13.9412
rtibia 58.4313
rfoot 6.26513 -19.9548
rtoes -18.1691
lfemur 4.83564 -4.74475 -28.9591
ltibia 18.1328
lfoot 24.1121 1.31209
ltoes -10.0525
34
root 1.08911 16.6106 15.5091 -168.248 -4.26951 -186.245
lowerback -1.38593 -7.50275 -8.5677
upperback -0.161829 -9.94241 -0.391347
thorax 1.96899 -5.06612 3.88025
lowerneck -34.7137 3.02094 4.95214
upperneck 36.2734 3.56597 -1.63626
head 20.2372 2.17666 -0.577958
rclavicle 4.74598e-014 -1.51076e-014
rhumerus -79.8348 6.26936 -74.8508
rradius 80.3302
rwrist 3.80566
rhand -13.4566 -2.23028
rfingers 7.12502
rthumb 12.653 -31.827
lclavicle 4.74598e-014 -1.51076e-014
lhumerus -39.9 -34.6416 97.7522
lradius 106.735
lwrist -19.8421
lhand -14.1143 3.95481
lfingers 7.12502
lthumb 12.0189 33.5897
rfemur -47.876 -0.488384 13.8129
rtibia 54.3159
rfoot 7.42282 -19.8352
rtoes -17.9427
lfemur 6.48473 -4.49073 -28.5881
ltibia 15.551
lfoot 27.8041 -0.177038
ltoes -8.15996
35
root 1.10175 16.7077 15.153 -167.919 -4.26235 -186.06
lowerback -1.82896 -7.76915 -8.26161
upperback -0.345628 -10.2599 -0.161978
thorax 2.05572 -5.21709 3.87643
lowerneck -34.318 3.18304 5.07467
upperneck 36.1934 3.92463 -1.94818
head 20.121 2.28455 -0.662989
rclavicle 1.28912e-013 -3.69739e-014
rhumerus -80.5702 6.37482 -74.2024
rradius 80.7444
rwrist 3.70832
rhand -13.2751 -2.06687
rfingers 7.12502
rthumb 12.828 -31.6527
lclavicle 1.28912e-013 -3.69739e-014
lhumerus -40.5799 -35.0689 97.6466
lradius 107.105
lwrist -19.9938
lhand -13.7899 3.71771
lfingers 7.12502
lthumb 12.3316 33.334
rfemur -47.6379 0.213927 13.6394
rtibia 50.1855
rfoot 8.7148 -19.5919
rtoes -17.6504
lfemur 8.18294 -4.17275 -28.2196
ltibia 12.8679
lfoot 31.4629 -1.44401
ltoes -5.98859
36
root 1.11325 16.7973 14.7939 -167.57 -4.23054 -185.884
lowerback -2.35852 -8.00274 -7.93434
upperback -0.527325 -10.5321 0.0496186
thorax 2.17836 -5.34757 3.83164
lowerneck -33.97 3.31779 5.17354
upperneck 36.1644 4.25226 -2.24207
head 20.0482 2.38315 -0.741793
rclavicle 1.75924e-014 3.57812e-015
rhumerus -81.2569 6.46346 -73.5952
rradius 81.1354
rwrist 3.69019
rhand -13.0785 -1.89349
rfingers 7.12502
rthumb 13.0175 -31.4673
lclavicle 1.75924e-014 3.57812e-015
lhumerus -41.3018 -35.4724 97.5672
lradius 107.405
lwrist -20.2225
lhand -13.4574 3.50173
lfingers 7.12502
lthumb 12.6523 33.0985
rfemur -47.3454 0.917085 13.4235
rtibia 46.1039
rfoot 10.1163 -19.2162
rtoes -17.4896
lfemur 9.92751 -3.79127 -27.8669
ltibia 10.1004
lfoot 34.9957 -2.50314
ltoes -3.74396
37
root 1.12405 16.8781 14.4333 -167.207 -4.17701 -185.732
lowerback -2.94847 -8.1967 -7.60453
upperback -0.699216 -10.7528 0.237405
thorax 2.33147 -5.45445 3.75358
lowerneck -33.6873 3.43091 5.26564
upperneck 36.1803 4.54432 -2.51873
head 20.0187 2.47174 -0.81908
rclavicle 1.18575e-013 1.64991e-014
rhumerus -81.8827 6.51353 -73.0351
rradius 81.4947
rwrist 3.72957
rhand -12.8739 -1.69293
rfingers 7.12502
rthumb 13.2147 -31.2541
lclavicle 1.18575e-013 1.64991e-014
lhumerus -42.0207 -35.8643 97.506
lradius 107.65
lwrist -20.4044
lhand -13.0641 3.2595
lfingers 7.12502
lthumb 13.0314 32.8325
rfemur -47.0244 1.60954 13.163
rtibia 42.1486
rfoot 11.584 -18.7735
rtoes -17.3928
lfemur 11.7359 -3.61789 -27.599
ltibia 7.21726
lfoot 38.4841 -3.14144
ltoes -1.69532
38
root 1.13471 16.9481 14.0727 -166.854 -4.11091 -185.616
lowerback -3.57043 -8.3555 -7.28955
upperback -0.844216 -10.9294 0.391981
thorax 2.51947 -5.54156 3.64443
lowerneck -33.5197 3.5452 5.36168
upperneck 36.2365 4.82055 -2.77486
head 20.0433 2.55719 -0.889831
rclavicle -1.51573e-014 -3.97569e-015
rhumerus -82.4283 6.52512 -72.5436
rradius 81.8621
rwrist 3.71665
rhand -12.5952 -1.56156
rfingers 7.12502
rthumb 13.4833 -31.1051
lclavicle -1.51573e-014 -3.97569e-015
lhumerus -42.6867 -36.2435 97.4329
lradius 107.853
lwrist -20.4185
lhand -12.5833 3.01554
lfingers 7.12502
lthumb 13.4949 32.5583
rfemur -46.6832 2.26279 12.8667
rtibia 38.4096
rfoot 13.0484 -18.3195
rtoes -17.5266
lfemur 13.7493 -3.43391 -27.3982
ltibia 3.97884
lfoot 41.906 -3.6496
ltoes 0.112721
39
root 1.14583 17.0061 13.7128 -166.541 -4.03851 -185.559
lowerback -4.18529 -8.4786 -7.02783
upperback -0.962395 -11.062 0.501639
thorax 2.72569 -5.60857 3.51911
lowerneck -33.4409 3.6456 5.45006
upperneck 36.3301 5.06184 -2.9978
head 20.1113 2.63305 -0.951126
rclavicle -6.77359e-014 -1.72943e-014
rhumerus -82.9124 6.48673 -72.1333
rradius 82.231
rwrist 3.62864
rhand -12.2548 -1.52451
rfingers 7.12502
rthumb 13.8114 -31.046
lclavicle -6.77359e-014 -1.72943e-014
lhumerus -43.339 -36.5989 97.3685
lradius 108.025
lwrist -20.315
lhand -12.0691 2.77523
lfingers 7.12502
lthumb 13.9904 32.2845
rfemur -46.3297 2.85248 12.5356
rtibia 34.998
rfoot 14.3919 -17.9761
rtoes -17.7925
lfemur 16.1896 -3.24695 -27.2854
ltibia -2.8625e-014
lfoot 45.386 -4.19387
ltoes 1.48565
40
root 1.15813 17.0502 13.3545 -166.291 -3.96517 -185.574
lowerback -4.7518 -8.57321 -6.84306
upperback -1.04908 -11.1601 0.560826
thorax 2.9371 -5.65975 3.39003
lowerneck -33.4026 3.75101 5.56096
upperneck 36.4263 5.28588 -3.20319
head 20.1919 2.70755 -1.01191
rclavicle -7.688e-014 -1.31198e-014
rhumerus -83.3293 6.40722 -71.8142
rradius 82.592
rwrist 3.48273
rhand -11.8569 -1.53311
rfingers 7.12502
rthumb 14.1949 -31.0281
lclavicle -7.688e-014 -1.31198e-014
lhumerus -43.9583 -36.9183 97.3032
lradius 108.151
lwrist -20.1321
lhand -11.5529 2.54662
lfingers 7.12502
lthumb 14.4879 32.0208
rfemur -45.9811 3.34677 12.1904
rtibia 32.0328
rfoot 20.3397 -18.8465
rtoes -21.8088
lfemur 16.6777 -3.06786 -27.2345
ltibia -6.36111e-015
lfoot 46.8526 -3.83343
ltoes 2.68055
41
root 1.17208 17.0798 12.9978 -166.139 -3.89536 -185.669
lowerback -5.2299 -8.64134 -6.74832
upperback -1.09376 -11.2252 0.561987
thorax 3.14421 -5.69567 3.26214
lowerneck -33.3967 3.83701 5.6475
upperneck 36.5182 5.46917 -3.36448
head 20.2734 2.76892 -1.05732
rclavicle 4.85283e-014 4.37326e-015
rhumerus -83.6667 6.28474 -71.6026
rradius 82.9262
rwrist 3.28666
rhand -11.4409 -1.63584
rfingers 7.12502
rthumb 14.5957 -31.1023
lclavicle 4.85283e-014 4.37326e-015
lhumerus -44.5568 -37.1867 97.239
lradius 108.231
lwrist -19.9399
lhand -11.0927 2.33739
lfingers 7.12502
lthumb 14.9311 31.7792
rfemur -45.6385 3.69341 11.8759
rtibia 29.6233
rfoot 22.1757 -18.9
rtoes -21.3147
lfemur 17.2798 -2.89891 -27.2636
ltibia 3.18055e-014
lfoot 47.949 -3.55647
ltoes 3.52439
42
root 1.18783 17.0948 12.6424 -166.092 -3.83196 -185.851
lowerback -5.61262 -8.69128 -6.76928
upperback -1.10401 -11.2654 0.512685
thorax 3.34306 -5.72063 3.15749
lowerneck -33.4164 3.90257 5.71661
upperneck 36.6486 5.62211 -3.49208
head 20.3822 2.82299 -1.09046
rclavicle -7.85945e-014 -1.98785e-015
rhumerus -83.922 6.13229 -71.4729
rradius 83.1845
rwrist 3.10018
rhand -11.0304 -1.7342
rfingers 7.12502
rthumb 14.9912 -31.1716
lclavicle -7.85945e-014 -1.98785e-015
lhumerus -45.1492 -37.3664 97.1958
lradius 108.257
lwrist -19.7721
lhand -10.6646 2.11497
lfingers 7.12502
lthumb 15.3436 31.5257
rfemur -45.314 3.84175 11.6279
rtibia 27.8424
rfoot 23.4098 -18.8901
rtoes -21.0461
lfemur 18.0048 -2.74544 -27.3752
ltibia -3.18055e-015
lfoot 48.6575 -3.39245
ltoes 4.11097
43
root 1.20561 17.0954 12.289 -166.15 -3.76735 -186.092
lowerback -5.87226 -8.71959 -6.89429
upperback -1.09471 -11.278 0.434728
thorax 3.50508 -5.7326 3.09865
lowerneck -33.3384 3.91033 5.72449
upperneck 36.7556 5.72106 -3.59674
head 20.4437 2.85454 -1.11685
rclavicle -1.50828e-014 -9.14409e-015
rhumerus -84.1067 5.98219 -71.4188
rradius 83.3639
rwrist 2.94634
rhand -10.6522 -1.81547
rfingers 7.12502
rthumb 15.3555 -31.2253
lclavicle -1.50828e-014 -9.14409e-015
lhumerus -45.743 -37.4225 97.1986
lradius 108.22
lwrist -19.6591
lhand -10.2774 1.85411
lfingers 7.12502
lthumb 15.7165 31.2359
rfemur -45.012 3.80376 11.4852
rtibia 26.6969
rfoot 24.1277 -18.6962
rtoes -20.5027
lfemur 16.7993 -2.59327 -27.5109
ltibia 4.00828
lfoot 47.2038 -2.50418
ltoes 4.4937
44
root 1.22515 17.0816 11.9376 -166.306 -3.70328 -186.375
lowerback -6.03694 -8.71506 -7.08997
upperback -1.05148 -11.2467 0.318629
thorax 3.65089 -5.72385 3.05559
lowerneck -33.2502 3.90528 5.74187
upperneck 36.8316 5.79177 -3.70688
head 20.482 2.87539 -1.15562
rclavicle -4.04527e-014 9.54166e-015
rhumerus -84.2044 5.78752 -71.4342
rradius 83.4437
rwrist 2.84719
rhand -10.3079 -1.84832
rfingers 7.12502
rthumb 15.6871 -31.2324
lclavicle -4.04527e-014 9.54166e-015
lhumerus -46.3256 -37.4019 97.2387
lradius 108.116
lwrist -19.5641
lhand -9.94688 1.59968
lfingers 7.12502
lthumb 16.0348 30.9561
rfemur -44.6962 3.59348 11.4545
rtibia 26.1156
rfoot 24.3993 -18.2658
rtoes -19.475
lfemur 15.9296 -2.43689 -27.6895
ltibia 7.55738
lfoot 45.6323 -1.86407
ltoes 4.71465
45
root 1.24606 17.0533 11.5886 -166.538 -3.63114 -186.666
lowerback -6.11993 -8.67137 -7.32666
upperback -0.979506 -11.1643 0.179581
thorax 3.77901 -5.69059 3.02808
lowerneck -33.1535 3.87585 5.75337
upperneck 36.8817 5.81962 -3.80976
head 20.4976 2.87995 -1.20159
rclavicle 4.30866e-014 1.78906e-015
rhumerus -84.1993 5.5403 -71.5007
rradius 83.3957
rwrist 2.82123
rhand -10.0198 -1.78486
rfingers 7.12502
rthumb 15.9646 -31.147
lclavicle 4.30866e-014 1.78906e-015
lhumerus -46.8771 -37.2947 97.2983
lradius 107.931
lwrist -19.5011
lhand -9.65145 1.31032
lfingers 7.12502
lthumb 16.3193 30.6437
rfemur -44.3315 3.29765 11.5096
rtibia 25.9867
rfoot 24.3285 -17.6156
rtoes -17.109
lfemur 15.2406 -2.26266 -27.8775
ltibia 10.8917
lfoot 43.9255 -1.38294
ltoes 4.84379
46
root 1.268 17.0102 11.2423 -166.836 -3.54566 -186.927
lowerback -6.12299 -8.58518 -7.56851
upperback -0.897158 -11.03 0.0433048
thorax 3.86927 -5.63127 3.02551
lowerneck -33.0977 3.84642 5.77299
upperneck 36.9148 5.83953 -3.92622
head 20.5138 2.87857 -1.25791
rclavicle -3.25261e-014 -9.14409e-015
rhumerus -84.1088 5.2855 -71.6128
rradius 83.2695
rwrist 2.77236
rhand -9.73765 -1.72385
rfingers 7.12502
rthumb 16.2363 -31.064
lclavicle -3.25261e-014 -9.14409e-015
lhumerus -47.4303 -37.0842 97.4113
lradius 107.673
lwrist -19.4581
lhand -9.41427 1.05978
lfingers 7.12502
lthumb 16.5476 30.3742
rfemur -43.8731 2.95501 11.6633
rtibia 26.2007
rfoot 23.9908 -16.7369
rtoes -13.0306
lfemur 14.5722 -2.37222 -28.1168
ltibia 14.2928
lfoot 42.2211 -0.713909
ltoes 4.87209
